<?xml version="1.0" encoding="utf-8"?>
<!-- Generator: Adobe Illustrator 21.1.0, SVG Export Plug-In . SVG Version: 6.00 Build 0)  -->
<svg version="1.1" id="Layer_1" xmlns="http://www.w3.org/2000/svg" xmlns:xlink="http://www.w3.org/1999/xlink" x="0px" y="0px"
	 viewBox="0 0 288 288" style="enable-background:new 0 0 288 288;" xml:space="preserve">
<g>
	<g>
		<path d="M124.1,43.8c-2.8,0-5.4,0-7.9,0c-1.2,0-2.6-0.1-2.4-1.6c0.1-0.6,1.5-1.6,2.3-1.6c16-0.1,32-0.7,47.9,0.1
			c16.1,0.8,27.9,9.5,33.8,24.5c6.8,17.3,6.3,34.9-1.1,52c-4.3,10-12.2,16.5-22.3,20.5c-1.3,0.5-2.5,1-4.2,1.7
			c1.9,0.8,3.6,1.4,5.2,2.1c15.8,6.6,24.5,18.8,27,35.4c2.2,15,0.8,29.7-4.9,43.8c-6.2,15.1-20.7,24.8-37.1,24.8c-6,0-12,0-18,0
			c-6.7-0.1-13.2,0.4-19.9,1.4c-11.9,1.8-22.6-1-30.6-10.8c-3.7-4.6-5.8-9.9-6.5-15.7c-0.9-7.4-1.2-14.8,1.5-21.8
			c1.1-3,3.1-5.9,5.4-8.1c6-5.6,14.8-3.8,18.5,3.7c3.4,6.9,3.5,14.1,0.5,21.2c-2.5,5.9-7.8,8.2-14,6.6c-1-0.3-2.1-0.6-3.1-0.8
			c-2.8-0.6-4.1,0.4-3.9,3.4c0.1,1.5,0.3,3.1,0.9,4.5c2.9,6.7,7.8,11.6,14.8,13.9c6.9,2.2,12.7-0.5,15.7-7.1c2-4.2,2.5-8.7,2.5-13.2
			c0-59.1,0-118.2,0-177.4C124.1,45,124.1,44.6,124.1,43.8z M156.9,242c1.1,0,2.1,0,3.1,0c9.5,0,13.7-5.3,13.6-13.8
			c-0.2-25.4-0.1-50.8-0.1-76.2c0-1.1,0.1-2.2-0.1-3.2c-0.3-3-1.3-5.9-4.5-6.5c-3.9-0.7-8-0.6-12-0.9
			C156.9,175.2,156.9,208.4,156.9,242z M157,44.1c0,31.5,0,62.5,0,93.7c2.2,0,4.3,0.1,6.4,0c7.5-0.3,10.1-3,10.1-10.6
			c0-0.2,0-0.5,0-0.7c0-23.3,0-46.5,0-69.8c0-1.1,0-2.2-0.1-3.2c-0.4-5.4-2.4-8-6.9-8.7C163.5,44.4,160.3,44.3,157,44.1z"/>
	</g>
</g>
</svg>
